<?xml version="1.0" encoding="iso-8859-1"?>
<!-- Generator: Adobe Illustrator 19.0.0, SVG Export Plug-In . SVG Version: 6.00 Build 0)  -->
<svg version="1.1" id="Capa_1" xmlns="http://www.w3.org/2000/svg" xmlns:xlink="http://www.w3.org/1999/xlink" x="0px" y="0px"
	 viewBox="0 0 512 512" style="enable-background:new 0 0 512 512;" xml:space="preserve">
<path style="fill:#AFB4BC;" d="M380.471,285.102c0,68.697-55.69,124.387-124.387,124.387s-124.387-55.69-124.387-124.387H83.286
	H37.07v25.977c0,3.793,2.614,7.054,6.338,7.775l44.003,8.517c4.197,16.802,10.836,32.636,19.523,47.102l-25.1,37.148
	c-2.124,3.143-1.72,7.351,0.962,10.033l36.737,36.737c2.682,2.682,6.89,3.086,10.033,0.962l37.148-25.1
	c14.466,8.687,30.3,15.326,47.102,19.523l8.517,44.002c0.721,3.724,3.982,6.414,7.775,6.414h51.954c3.793,0,7.054-2.69,7.775-6.414
	l8.517-44.002c16.803-4.197,32.636-10.836,47.103-19.523l37.148,25.1c3.143,2.124,7.351,1.72,10.033-0.962l36.737-36.737
	c2.682-2.682,3.086-6.89,0.962-10.033l-25.1-37.148c8.687-14.466,15.326-30.3,19.523-47.102l44.003-8.517
	c3.724-0.721,6.169-3.981,6.169-7.775v-25.977L380.471,285.102L380.471,285.102z"/>
<path style="fill:#FF8D27;" d="M474.93,285.102H37.07v-41.57c0-10.566,8.49-19.132,19.056-19.132h399.463
	c10.566,0,19.342,8.566,19.342,19.132v41.57H474.93z"/>
<path style="fill:#FF7610;" d="M455.589,224.4h-56.548c10.566,0,19.132,8.566,19.132,19.132l0,0
	c0,10.694-8.669,19.363-19.363,19.363H37.07v22.207h361.97h75.89l0,0v-41.57C474.93,232.966,466.155,224.4,455.589,224.4z"/>
<path style="fill:#FFDC48;" d="M266.165,45.419H245.55c-97.991,0-177.428,79.437-177.428,177.428v1.553h375.472v-1.553
	C443.593,124.856,364.156,45.419,266.165,45.419z"/>
<path style="fill:#FFCE00;" d="M264.612,45.419h-17.51c-4.789,0-9.532,0.193-14.226,0.562
	c92.197,7.251,164.755,84.359,164.755,178.419l0,0h45.961l0,0C443.593,125.551,363.461,45.419,264.612,45.419z"/>
<path style="fill:#FFB82E;" d="M182.183,90.384L169.76,49.718c-1.688-5.524,2.445-11.108,8.221-11.108
	c20.116-4.582,45.984-8.608,76.174-8.755c31.728-0.154,58.804,4.023,79.578,8.755c0.419,0,4.384,0.07,6.91,3.482
	c1.544,2.086,2.155,4.863,1.312,7.626l-11.819,38.69"/>
<path style="fill:#FFA910;" d="M192.01,35.721l15.86,54.532l95.976-1.706l15.86-52.825c-18.424-3.413-40.532-5.988-65.55-5.866
	C230.569,29.97,209.638,32.456,192.01,35.721z"/>
<path style="fill:#FFB82E;" d="M207.869,121.183V19.942c0-6.702,5.433-12.135,12.135-12.135h71.705
	c6.702,0,12.135,5.433,12.135,12.135v101.241"/>
<g>
	<path style="fill:#FF5122;" d="M289.173,224.4h-74.438v-23.418c0-4.987,4.043-9.03,9.03-9.03h56.378c4.987,0,9.03,4.043,9.03,9.03
		V224.4z"/>
	<path style="fill:#FF5122;" d="M105.053,191.953h-33.99c-1.927,10.524-2.942,21.367-2.942,32.448l0,0h45.961v-23.418
		C114.083,195.995,110.04,191.953,105.053,191.953z"/>
	<path style="fill:#FF5122;" d="M406.662,191.953h33.989c1.927,10.524,2.942,21.367,2.942,32.448l0,0h-45.961v-23.418
		C397.632,195.995,401.675,191.953,406.662,191.953z"/>
</g>
<path style="fill:#808791;" d="M474.93,285.102h-94.232h-0.227c0,68.697-55.69,124.387-124.387,124.387
	c-60.384,0-110.711-43.03-122.009-100.098h0.227c-1.555-7.856-2.378-15.976-2.378-24.289h-0.227H37.07v24.289h30.873
	c20.269,0,38.434,12.448,45.815,31.325c22.238,56.874,77.575,97.16,142.327,97.16s120.089-40.286,142.326-97.16
	c7.381-18.878,25.545-31.326,45.815-31.326h30.705v-24.288H474.93z"/>
<path d="M455.816,216.593c-1.014,0-2.028,0-3.042,0c-0.22,0-1.093,0.142-1.261,0c-0.141-0.119-0.08-0.682-0.092-0.905
	c-0.036-0.708-0.071-1.415-0.111-2.123c-0.276-4.898-0.746-9.791-1.417-14.651c-1.636-11.988-4.422-23.769-8.358-35.226
	c-1.401-4.076-5.84-6.248-9.92-4.847c-4.078,1.401-6.248,5.842-4.847,9.92c1.738,5.061,3.209,10.197,4.46,15.385h-24.341
	c-9.284,0-16.837,7.553-16.837,16.837v15.61h-92.845v-15.61c0-9.284-7.553-16.837-16.837-16.837H223.99
	c-9.284,0-16.837,7.553-16.837,16.837v15.61h-85.038v-15.61c0-9.284-7.553-16.837-16.837-16.837H81.001
	c11.584-47.667,43.338-88.834,87.729-111.821l6.214,20.34c1.028,3.364,4.12,5.528,7.464,5.528c0.755,0,1.524-0.111,2.284-0.343
	c4.123-1.26,6.445-5.624,5.185-9.748l-12.423-40.667c-0.029-0.094-0.117-0.379,0.12-0.698c0.237-0.32,0.536-0.32,0.634-0.32
	c0.584,0,1.165-0.065,1.733-0.195c6.711-1.528,13.526-2.851,20.348-3.978v78.94c0,4.312,3.495,7.807,7.807,7.807
	s7.807-3.495,7.807-7.807V19.942c0-2.386,1.942-4.327,4.327-4.327h71.706c2.386,0,4.327,1.942,4.327,4.327v101.242
	c0,4.312,3.495,7.807,7.807,7.807s7.807-3.495,7.807-7.807V42.245c6.824,1.126,13.638,2.449,20.347,3.977
	c0.535,0.122,1.08,0.187,1.628,0.194c0.1,0.012,0.561,0.078,0.741,0.321c0.236,0.319,0.148,0.606,0.12,0.699l-11.818,38.689
	c-1.26,4.124,1.062,8.488,5.185,9.748c0.76,0.232,1.528,0.343,2.284,0.343c3.342,0,6.436-2.165,7.464-5.528l5.613-18.375
	c28.806,14.959,53.322,38.277,69.621,66.411c1.448,2.499,4.068,3.894,6.762,3.894c1.329,0,2.675-0.34,3.907-1.053
	c3.731-2.161,5.003-6.938,2.841-10.669c-18.258-31.516-45.97-57.497-78.499-73.749l1.573-5.149
	c1.535-5.025,0.623-10.329-2.502-14.549c-3.32-4.488-8.265-6.331-12.144-6.61c-7.626-1.72-15.375-3.196-23.124-4.418V19.94
	C311.879,8.946,302.933,0,291.937,0h-71.706c-10.996,0-19.942,8.946-19.942,19.942v6.482c-7.735,1.22-15.471,2.692-23.086,4.409
	c-4.859,0.289-9.256,2.663-12.181,6.616c-3.125,4.224-4.037,9.527-2.502,14.551l1.571,5.141
	c-52.665,26.251-89.52,75.778-100.293,132.63c-0.074,0.254-0.139,0.512-0.187,0.776c-1.157,6.316-1.978,12.721-2.482,19.153
	c-0.181,2.295-0.322,4.594-0.419,6.895h-4.357c-14.937,0-27.09,12.085-27.09,26.939v41.571v25.976
	c0,7.527,5.325,14.019,12.662,15.439l39.192,7.586c3.904,13.968,9.472,27.404,16.604,40.059l-22.357,33.088
	c-4.209,6.228-3.404,14.608,1.91,19.923l36.737,36.737c5.318,5.316,13.696,6.119,19.925,1.91l33.087-22.356
	c12.652,7.13,26.088,12.699,40.058,16.603l7.586,39.192c1.428,7.381,7.921,12.738,15.439,12.738h51.954
	c7.518,0,14.011-5.357,15.439-12.737l3.248-16.782c0.819-4.233-1.949-8.329-6.182-9.148c-4.241-0.826-8.33,1.949-9.148,6.182
	l-3.248,16.781c-0.01,0.053-0.056,0.09-0.11,0.09h-51.954c-0.053,0-0.1-0.038-0.11-0.09l-8.517-44.003
	c-0.576-2.981-2.828-5.355-5.773-6.091c-15.831-3.954-30.963-10.227-44.974-18.642c-2.601-1.562-5.875-1.474-8.391,0.224
	l-37.149,25.101c-0.044,0.032-0.103,0.025-0.14-0.014l-36.737-36.737c-0.038-0.038-0.044-0.097-0.013-0.14l25.1-37.148
	c1.699-2.516,1.786-5.788,0.224-8.391c-8.416-14.015-14.687-29.148-18.642-44.975c-0.736-2.945-3.111-5.197-6.091-5.773
	l-43.987-8.504c-0.003-0.003-0.029-0.034-0.029-0.122V292.91h79.241c4.054,69.272,61.695,124.386,131.966,124.386
	S383.996,362.182,388.05,292.91h79.073v18.169c0,0.057-0.005,0.104-0.011,0.141l-43.837,8.485c-2.981,0.576-5.355,2.828-6.091,5.773
	c-3.954,15.828-10.226,30.96-18.642,44.975c-1.562,2.602-1.475,5.875,0.224,8.391l25.1,37.147c0.03,0.045,0.024,0.104-0.013,0.141
	l-36.737,36.737c-0.038,0.039-0.098,0.046-0.141,0.013l-37.148-25.1c-2.517-1.698-5.789-1.786-8.391-0.224
	c-14.011,8.415-29.144,14.687-44.974,18.642c-4.183,1.045-6.728,5.283-5.683,9.466c1.044,4.184,5.286,6.726,9.466,5.683
	c15.711-3.925,30.792-9.934,44.9-17.884l33.086,22.355c6.228,4.209,14.609,3.408,19.927-1.909l36.737-36.737
	c5.315-5.316,6.119-13.695,1.91-19.924l-22.357-33.088c7.132-12.654,12.701-26.09,16.604-40.058l39.192-7.586
	c7.356-1.424,12.493-7.773,12.493-15.439v-25.976v-41.571C482.737,228.678,470.661,216.593,455.816,216.593z M405.666,200.983
	c0-0.674,0.549-1.223,1.223-1.223h27.346c0.803,5.577,1.355,11.203,1.601,16.833h-30.17V200.983z M222.769,200.983
	c0-0.674,0.549-1.223,1.223-1.223h56.378c0.674,0,1.223,0.549,1.223,1.223v15.61h-58.824L222.769,200.983L222.769,200.983z
	 M105.279,199.76c0.674,0,1.223,0.549,1.223,1.223v15.61H76.334c0.086-1.877,0.209-3.748,0.356-5.614
	c0.02-0.26,0.043-0.52,0.064-0.781c0.293-3.504,0.7-6.983,1.205-10.439L105.279,199.76L105.279,199.76z M380.471,277.296H205.302
	c-4.312,0-7.807,3.495-7.807,7.807s3.495,7.807,7.807,7.807h167.094c-4.031,60.655-54.654,108.771-116.312,108.771
	S143.803,353.565,139.772,292.91h25.453c4.312,0,7.807-3.495,7.807-7.807s-3.495-7.807-7.807-7.807h-33.528h-86.82v-33.764
	c0-6.245,5.148-11.324,11.476-11.324h11.995h45.961h100.652H289.4h108.459h45.961h11.995c6.235,0,11.307,5.08,11.307,11.324v33.764
	H380.471z"/>
<g>
</g>
<g>
</g>
<g>
</g>
<g>
</g>
<g>
</g>
<g>
</g>
<g>
</g>
<g>
</g>
<g>
</g>
<g>
</g>
<g>
</g>
<g>
</g>
<g>
</g>
<g>
</g>
<g>
</g>
</svg>
