<svg id="Capa_1" enable-background="new 0 0 511.677 511.677" height="512" viewBox="0 0 511.677 511.677" width="512" xmlns="http://www.w3.org/2000/svg"><g><g><path d="m382.533 9.012c-3.544 0-6.974 1.255-9.681 3.542l-39.32 33.223h-264.355c-8.284 0-15 6.716-15 15v94.586l439.999 37.148-10.001-183.134z" fill="#f7e365"/><path d="m489.176 9.395-5.002-.018v142.895l-5.23-49.761c-.866-8.239-8.247-14.216-16.486-13.35l-343.603 36.114c-8.239.866-14.216 8.247-13.35 16.486l4.109 39.098 394.561 11.652v-168.116c.001-8.285-6.714-15-14.999-15z" fill="#f3d332"/><path d="m91.716 180.859h365.695l4.913-42.303-22.648-69.104-340.822 35.821c-8.239.866-14.216 8.247-13.35 16.486z" fill="#e3e0e4"/><path d="m469.28 180.859-10.337-98.35c-.866-8.239-8.247-14.216-16.486-13.35l-2.782.292 11.787 111.407h17.818z" fill="#c5bec6"/><path d="m484.175 177.502-226.353-.375-39.321-33.222c-2.707-2.287-6.137-3.542-9.681-3.542h-139.643c-8.284 0-15 6.716-15 15v263.886l434.499 8.706z" fill="#faf0b0"/><path d="m489.176 177.51-5.002-.008v234.618c0 4.145-3.362 7.504-7.507 7.5l-422.491-.372v4.997c0 8.284 6.716 15 15 15l419.999.383c8.284 0 15-6.716 15-15v-232.118c.001-8.284-6.714-15-14.999-15z" fill="#f7e365"/><path d="m117 485.8-10.16-72.236h-12.615c-4.142 0-7.5 3.358-7.5 7.5v61.6l16.158 14.43c1.932 0 14.117-9.361 14.117-11.294z" fill="#b5adb7"/><path d="m119.224 413.564h-12.384v65.6c0 1.933-1.567 3.5-3.5 3.5h-16.615v12.502c0 4.142 3.358 7.5 7.5 7.5h24.999c4.142 0 7.5-3.358 7.5-7.5v-74.102c0-4.142-3.358-7.5-7.5-7.5z" fill="#a59da7"/><path d="m37.171 341.14c-18.318-18.205-29.671-43.497-29.671-71.458 0-27.728 11.164-52.831 29.215-71.002s18.47 160.363.456 142.46z" fill="#d8e2f3"/><path d="m156.341 182.262c-14.495-8.267-31.246-12.991-49.095-12.991-27.312 0-52.057 11.055-70.07 28.957v128.93c8.413 15.231 31.089 23.348 49.549 23.348 50.946 0 104.746-47.525 104.746-98.471 0-24.305-16.236-51.874-35.13-69.773z" fill="#e4a4ad"/><path d="m156.341 182.262c14.997 17.502 23.149 43.113 23.149 67.419 0 50.946-41.3 92.246-92.246 92.246-18.46 0-35.648-5.429-50.068-14.769v13.979s25.472 28.957 70.07 28.957c55.088 0 99.746-44.956 99.746-100.412 0-37.488-20.41-70.173-50.651-87.42z" fill="#dc8995"/></g><g><path d="m300.229 130.267c.405 3.853 3.659 6.717 7.45 6.717.262 0 .526-.014.793-.042l121.194-12.737c4.119-.433 7.107-4.123 6.675-8.243-.434-4.118-4.117-7.117-8.243-6.675l-121.194 12.737c-4.119.432-7.107 4.122-6.675 8.243z"/><path d="m511.677 24.395c0-12.406-10.094-22.5-22.473-22.5l-106.671-.383c-5.309 0-10.466 1.887-14.521 5.313l-37.224 31.451h-138.464c-4.142 0-7.5 3.357-7.5 7.5s3.358 7.5 7.5 7.5h141.208c1.772 0 3.487-.628 4.841-1.771l39.319-33.223c1.353-1.142 3.071-1.771 4.813-1.771l106.671.383c4.136 0 7.5 3.364 7.5 7.5v146.904c-2.344-.831-4.863-1.288-7.487-1.288l-13.511-.022-9.277-88.264c-.629-5.978-3.547-11.352-8.218-15.134-4.671-3.783-10.534-5.519-16.511-4.891l-47.509 4.993c-4.119.433-7.107 4.123-6.675 8.243.434 4.118 4.11 7.111 8.243 6.675l47.509-4.993c1.99-.212 3.946.368 5.503 1.63 1.557 1.261 2.53 3.053 2.739 5.045l9.109 86.67-200.021-.331-29.099-24.585c17.256-1.813 43.827-4.618 43.827-4.618 4.119-.433 7.107-4.123 6.675-8.243-.434-4.119-4.115-7.115-8.243-6.675l-69.95 7.352h-109.567l-1.25-11.888c-.209-1.992.37-3.946 1.63-5.504 1.261-1.557 3.052-2.529 5.045-2.738l264.993-27.852c4.119-.433 7.107-4.124 6.675-8.243-.434-4.118-4.121-7.118-8.243-6.675l-264.992 27.852c-5.978.628-11.352 3.546-15.135 8.217-3.782 4.671-5.519 10.534-4.891 16.512l1.085 10.319h-9.952c-2.629 0-5.153.458-7.5 1.29v-73.376c0-4.136 3.364-7.5 7.5-7.5h93.146c4.142 0 7.5-3.357 7.5-7.5s-3.358-7.5-7.5-7.5h-93.147c-12.407 0-22.5 10.094-22.5 22.5v119.901c-28.166 19.468-46.677 52.1-46.677 89.005s18.511 69.538 46.677 89.005v65.56c0 12.406 10.093 22.5 22.483 22.5l10.064.023v48.396c0 8.271 6.729 15 15 15h24.999c8.271 0 15-6.729 15-15v-25.876c0-4.142-3.358-7.5-7.5-7.5s-7.5 3.358-7.5 7.5v25.876h-24.998v-74.102h25v18.223c0 4.14 3.354 7.496 7.493 7.5l362.46.343c12.406 0 22.5-10.094 22.5-22.5v-60.447c0-4.143-3.357-7.5-7.5-7.5s-7.5 3.357-7.5 7.5v60.447c0 4.136-3.364 7.5-7.493 7.5l-354.959-.336v-10.729c0-8.271-6.729-15-15-15h-5v-28.704c55.895-3.631 100.268-50.534 100.268-107.678 0-59.502-48.11-107.911-107.246-107.911-16.285 0-31.73 3.678-45.569 10.241v-16.649c0-4.136 3.365-7.5 7.5-7.5h139.641c1.77 0 3.488.629 4.84 1.771l39.321 33.222c1.35 1.142 3.06 1.769 4.828 1.771l231.368.384c4.136 0 7.5 3.364 7.5 7.5v141.671c0 4.143 3.357 7.5 7.5 7.5s7.5-3.357 7.5-7.5zm-482.002 195.057v100.459c-9.282-14.492-14.675-31.738-14.675-50.229s5.393-35.738 14.675-50.23zm64.55 186.611c-8.271 0-15 6.729-15 15v10.706l-10.047-.023c-4.136 0-7.5-3.364-7.5-7.5v-56.893c11.545 5.476 24.209 8.942 37.547 9.94v28.771h-5zm73.167-124.056 13.339.002h.001c4.142 0 7.5-3.357 7.5-7.499s-3.357-7.5-7.499-7.501l-13.339-.002.002-25.791 27.663.003c2.874 8.974 4.433 18.538 4.433 28.463 0 13.576-2.907 26.48-8.125 38.117l-23.978-.002zm21.363-55.789-28.857-.003s0 0-.001 0c-1.989 0-3.896.79-5.303 2.196s-2.197 3.313-2.197 5.303l-.008 81.581c0 1.989.79 3.897 2.196 5.304s3.314 2.197 5.303 2.197l22.999.002c-16.69 24.04-44.371 39.796-75.641 39.796-24.127 0-46.116-9.382-62.571-24.709v-136.406c16.455-15.326 38.444-24.708 62.571-24.708 35.284 0 65.999 20.059 81.509 49.447z"/><path d="m400.433 262.136c.001 0 .001 0 0 0 4.143 0 7.501-3.357 7.501-7.499 0-4.143-3.357-7.501-7.499-7.501l-25.609-.003h-.001c-1.988 0-3.896.79-5.303 2.196s-2.197 3.313-2.197 5.303l-.006 60.778c0 4.143 3.357 7.501 7.499 7.501l25.609.003h.001c4.142 0 7.5-3.357 7.5-7.499 0-4.143-3.357-7.501-7.499-7.501l-18.109-.002.001-15.389 8.219.001h.001c4.142 0 7.499-3.357 7.5-7.499.001-4.143-3.357-7.5-7.499-7.501l-8.22-.001.001-15.39z"/><path d="m265.555 261.842c4.644.001 9.121 1.368 12.948 3.954 3.431 2.319 8.094 1.418 10.413-2.015 2.319-3.432 1.417-8.094-2.015-10.413-6.315-4.269-13.697-6.525-21.346-6.526-.001 0-.001 0-.002 0-21.045 0-38.168 17.121-38.17 38.166-.001 10.195 3.968 19.78 11.177 26.99s16.793 11.182 26.989 11.183h.005c8.404 0 15.948-2.762 21.818-7.988 1.148-1.024 2.24-2.15 3.244-3.346 2.663-3.172 2.251-7.903-.922-10.566-3.172-2.662-7.902-2.249-10.566.922-.541.644-1.125 1.247-1.733 1.789-3.122 2.78-7.105 4.189-11.841 4.189 0 0-.002 0-.003 0-6.189-.001-12.007-2.411-16.383-6.788-4.375-4.376-6.785-10.194-6.784-16.383 0-12.776 10.395-23.169 23.171-23.168z"/><path d="m105.009 308.165s-.002 0-.003 0c-8.958-.001-17.606-3.643-23.132-9.743-2.781-3.069-7.524-3.303-10.594-.521-3.07 2.78-3.304 7.523-.522 10.594 8.322 9.186 21.125 14.67 34.247 14.671h.004c15.736-.001 29.448-10.327 31.895-24.021 1.852-10.367-2.994-23.963-22.15-31.031-10.568-3.898-20.372-8.155-22.876-9.256-2.572-1.894-3.82-4.913-3.351-8.178.593-4.13 3.773-7.446 8.508-8.871 13.122-3.952 24.992 5.56 25.232 5.755 3.17 2.641 7.882 2.225 10.54-.938 2.666-3.17 2.256-7.901-.914-10.566-.73-.614-18.117-14.96-39.183-8.614-10.314 3.105-17.606 11.19-19.03 21.101-1.327 9.231 2.67 18.11 10.432 23.172.331.216.679.405 1.041.566.473.211 11.728 5.223 24.411 9.901 9.023 3.33 13.607 8.549 12.576 14.32-1.013 5.652-7.358 11.659-17.131 11.659z"/><path d="m445.688 323.198c4.143 0 7.501-3.357 7.501-7.499l.005-53.839 9.505.001h.001c4.142 0 7.5-3.357 7.5-7.499 0-4.143-3.357-7.501-7.499-7.501l-33.874-.003c-.001 0-.001 0-.001 0-4.142 0-7.5 3.357-7.5 7.499 0 4.143 3.357 7.501 7.499 7.501l9.369.001-.005 53.838c-.001 4.143 3.357 7.501 7.499 7.501z"/><path d="m353.931 270.292c0-12.926-10.919-23.442-24.341-23.443l-16.3-.002c-.001 0-.001 0-.001 0-.003 0-.007 0-.01 0s-.006 0-.01 0c-.001 0-.001 0-.001 0-4.142 0-7.5 3.357-7.5 7.499l-.006 61.339c0 4.143 3.357 7.501 7.499 7.501h.001c4.142 0 7.5-3.357 7.5-7.499l.002-17.807 20.031 22.763c1.483 1.686 3.553 2.546 5.634 2.546 1.76 0 3.526-.616 4.951-1.869 3.11-2.736 3.413-7.476.677-10.585l-15.765-17.915c10.17-2.812 17.638-11.844 17.639-22.528zm-24.345 8.438c-2.037 0-5.514.014-8.729.029-.016-3.138-.029-6.506-.029-8.472 0-1.67-.008-5.152-.017-8.44l8.776.001c5.064.001 9.342 3.866 9.343 8.441 0 4.576-4.279 8.441-9.344 8.441z"/></g></g></svg>