<svg id="Filloutline" enable-background="new 0 0 62 61.707" height="512" viewBox="0 0 62 61.707" width="512" xmlns="http://www.w3.org/2000/svg"><g><g><g><path d="m61 43.707v7c0 2.12-1.1 3.99-2.77 5.06-.27-.48-.6-.92-.99-1.3-.62-.63-1.39-1.12-2.24-1.41v-.01c-.63-.22-1.3-.34-2-.34 2.21 0 4-1.79 4-4v-4c0-1.1-.9-2-2-2h-2c-1.1 0-2-.9-2-2v-4h3c3.87 0 7 3.13 7 7z" fill="#fcd770"/></g><g><path d="m61 17.707v16c0 .55-.45 1-1 1h-2c-.55 0-1-.45-1-1v-1-14-1c0-.55.45-1 1-1h2c.55 0 1 .45 1 1z" fill="#ccd1d9"/></g><g><path d="m59 58.707v2h-14v-2c0-1.07.28-2.07.77-2.94.71-1.26 1.86-2.23 3.23-2.71v.65c0 1.66 1.34 3 3 3 .83 0 1.58-.34 2.12-.88s.88-1.29.88-2.12v-.65c.85.29 1.62.78 2.24 1.41.39.38.72.82.99 1.3.49.87.77 1.87.77 2.94z" fill="#ef7385"/></g><g><path d="m57 44.707v4c0 2.21-1.79 4-4 4h-2c-2.21 0-4-1.79-4-4v-4c0-2.21 1.79-4 4-4 0 1.1.9 2 2 2h2c1.1 0 2 .9 2 2z" fill="#f0d0b4"/></g><g><path d="m57 18.707v14l-10-.67v-12.72z" fill="#ccd1d9"/></g><g><path d="m55 53.057v.65c0 .83-.34 1.58-.88 2.12s-1.29.88-2.12.88c-1.66 0-3-1.34-3-3v-.65-.01c.63-.22 1.3-.34 2-.34h2c.7 0 1.37.12 2 .34z" fill="#f0d0b4"/></g><g><path d="m51 36.707v4c-2.21 0-4 1.79-4 4v4c0 2.21 1.79 4 4 4-.7 0-1.37.12-2 .34v.01c-1.37.48-2.52 1.45-3.23 2.71-1.67-1.07-2.77-2.94-2.77-5.06v-4-3c0-3.87 3.13-7 7-7z" fill="#fcd770"/></g><g><path d="m47 19.317v12.72l-7.23-.48-4.23-.28-.58-.04v-11.19z" fill="#969faa"/></g><g><path d="m43 41.867c0 .56-.09 1.11-.26 1.63l-.54 1.61c-.34-.25-.75-.4-1.2-.4h-2c0-1.1-.9-2-2-2h-3l4-4 1.67-1.67c1.94.74 3.33 2.63 3.33 4.83z" fill="#656d78"/></g><g><path d="m42.2 45.107c.48.37.8.95.8 1.6 0 .55-.22 1.05-.59 1.41-.36.37-.86.59-1.41.59h-2v-4h2c.45 0 .86.15 1.2.4z" fill="#f0d0b4"/></g><g><path d="m41 58.707v2h-4l-2-4 1.85-3.71c.91.29 1.73.8 2.39 1.47 1.09 1.08 1.76 2.58 1.76 4.24z" fill="#e6e9ed"/></g><g><path d="m41 34.247c0 .93-.37 1.83-1.04 2.5l-.29.29-1.67 1.67-5-5 1.96-1.96c.18-.18.37-.34.58-.47l4.23.28c.75.65 1.23 1.61 1.23 2.69z" fill="#f0d0b4"/></g><g><path d="m39 44.707v4c0 2.21-1.79 4-4 4h-2c-1.9 0-3.49-1.33-3.9-3.1l.86-.86c.67-.67 1.04-1.57 1.04-2.5 0-.17-.01-.34-.04-.5l3.04-3.04h3c1.1 0 2 .9 2 2z" fill="#f0d0b4"/></g><g><path d="m38 38.707-4 4-3.04 3.04c-.11-.78-.47-1.47-1-2-.64-.64-1.52-1.04-2.5-1.04-.93 0-1.83.37-2.5 1.04l-1.96 1.96-.18.18c-.58-2-2-3.62-3.82-4.48v-.01-.69h4.51c1.6 0 3.12-.63 4.25-1.76l5.24-5.24z" fill="#a0d468"/></g><g><path d="m35 56.707 2 4h-6l2-4z" fill="#ef7385"/></g><g><path d="m36.85 52.997-1.85 3.71h-2l-1.85-3.71c.58-.19 1.2-.29 1.85-.29h2c.65 0 1.27.1 1.85.29z" fill="#ef7385"/></g><g><path d="m34.96 20.047v11.19l-7.96-.53v-2l2-2c-1.28-1.28-2-3.02-2-4.83v-1.34z" fill="#ccd1d9"/></g><g><path d="m31.15 52.997 1.85 3.71-2 4h-4v-2c0-2.67 1.75-4.93 4.15-5.71z" fill="#e6e9ed"/></g><g><path d="m30.96 45.747c.03.16.04.33.04.5 0 .93-.37 1.83-1.04 2.5l-.86.86-1.1 1.1-5-5 1.96-1.96c.67-.67 1.57-1.04 2.5-1.04.98 0 1.86.4 2.5 1.04.53.53.89 1.22 1 2z" fill="#f0d0b4"/></g><g><path d="m26.13 17.197c-.09.12-.19.23-.3.34-.73.72-1.73 1.17-2.83 1.17h-7c-2.21 0-4 1.79-4 4h-1c-1.66 0-3 1.34-3 3 0 .83.34 1.58.88 2.12s1.29.88 2.12.88h1v.46c0 2.18-.83 4.27-2.32 5.85l-2.68-1.94c-1.88-1.37-3.38-3.16-4.41-5.18s-1.59-4.28-1.59-6.61c0-8.05 6.53-14.58 14.58-14.58h8.62c1.88 0 3.58.76 4.81 1.99s1.99 2.93 1.99 4.81c0 2.57-1.45 4.93-3.76 6.08l-.29.14c-.1-.89-.38-1.75-.82-2.53z" fill="#fcd770"/></g><g><path d="m27 32.707v.23c0 1.04-.42 1.98-1.1 2.67-.69.68-1.63 1.1-2.67 1.1-.15 0-.31-.01-.46-.03l-3.77-.47v4.5.69.01c-.94-.45-1.98-.7-3.08-.7h-3.92v-1.45c0-1.6-.77-3.11-2.06-4.05l-.26-.19c1.49-1.58 2.32-3.67 2.32-5.85v-.46h-1c-.83 0-1.58-.34-2.12-.88s-.88-1.29-.88-2.12c0-1.66 1.34-3 3-3h1c0-2.21 1.79-4 4-4h7c1.1 0 2.1-.45 2.83-1.17.11-.11.21-.22.3-.34.44.78.72 1.64.82 2.53.03.27.05.54.05.81v1.34c0 1.81.72 3.55 2 4.83l-2 2v2z" fill="#f0d0b4"/></g><g><path d="m22.82 45.887.18-.18 5 5-8.14 8.14c-1.19 1.19-2.81 1.86-4.5 1.86-1.76 0-3.34-.71-4.5-1.86-1.15-1.16-1.86-2.74-1.86-4.5v-8.03c0-2.26 1.13-4.36 3-5.61h3.92c1.1 0 2.14.25 3.08.7 1.82.86 3.24 2.48 3.82 4.48z" fill="#b4dd7f"/></g></g><g><path d="m20.707 26.414 2.707-2.707-2.707-2.707-1.414 1.414 1.293 1.293-1.293 1.293z"/><path d="m58 35.707h2c1.103 0 2-.897 2-2v-16c0-1.103-.897-2-2-2h-2c-1.103 0-2 .897-2 2v.059l-26.698 1.627c1.692-1.458 2.698-3.578 2.698-5.887 0-4.3-3.499-7.799-7.799-7.799h-8.624c-8.589 0-15.577 6.988-15.577 15.577 0 4.967 2.398 9.676 6.415 12.598l2.938 2.137c1.031.75 1.647 1.959 1.647 3.234v.96c-1.882 1.46-3 3.694-3 6.099v8.03c0 4.061 3.304 7.364 7.364 7.364 1.967 0 3.816-.766 5.207-2.157l8.189-8.189c.272.437.612.819.998 1.148-2.231 1.173-3.758 3.51-3.758 6.199v3h16v-3c0-2.698-1.537-5.04-3.779-6.208.836-.712 1.45-1.676 1.678-2.792h1.101c.352 0 .686-.072 1-.184v1.184c0 2.101.927 4.053 2.515 5.375-.329.812-.515 1.697-.515 2.625v3h16v-3c0-.928-.186-1.813-.515-2.625 1.588-1.322 2.515-3.274 2.515-5.375v-7c0-4.411-3.589-8-8-8h-4c-2.745 0-5.171 1.391-6.612 3.504-.477-.992-1.222-1.838-2.145-2.457.492-.737.757-1.604.757-2.512 0-.539-.118-1.058-.299-1.553l14.299.954v.064c0 1.103.897 2 2 2zm0-18h2l.002 16h-2.002zm-26.649 26.235c-.791-1.331-2.229-2.235-3.886-2.235-1.212 0-2.351.472-3.207 1.328l-1.082 1.082c-.485-.929-1.15-1.739-1.931-2.41h2.269c1.87 0 3.628-.729 4.95-2.051l4.536-4.535 3.586 3.586zm-3.351 5.351-3.586-3.586 1.258-1.258c.479-.479 1.115-.742 1.793-.742 1.397 0 2.535 1.138 2.535 2.535 0 .678-.264 1.314-.742 1.793zm-16.901-14.418c1.229-1.642 1.901-3.628 1.901-5.703v-1.465h-2c-1.103 0-2-.897-2-2s.897-2 2-2h2v-1c0-1.654 1.346-3 3-3h7c1.016 0 1.959-.308 2.749-.831.16.538.251 1.095.251 1.659v1.344c0 1.726.586 3.421 1.632 4.782l-1.632 1.632v3.414h-2c-1.103 0-2-.897-2-2h-2c0 2.206 1.794 4 4 4h1.876c-.373 1.257-1.615 2.155-2.984 1.979l-7.768-.971-.248 1.984 3.124.391v2.9c-.671-.179-1.368-.282-2.083-.282h-2.917v-.454c0-1.665-.7-3.254-1.901-4.379zm22.866-13.763v9.056l-5.965-.397v-.65l2.414-2.414-.707-.707c-1.085-1.085-1.707-2.587-1.707-4.121v-.403zm-6.914 17.13c-.944.944-2.2 1.465-3.536 1.465h-3.515v-2.367l2.642.33c.196.024.395.037.593.037 2.628 0 4.766-2.138 4.766-4.766v-1.165l5.172.345zm8.914-7.94v-9.312l10.035-.611v10.592zm-33.965-9.018c0-7.486 6.091-13.577 13.577-13.577h8.624c3.197 0 5.799 2.602 5.799 5.799 0 1.881-.896 3.595-2.38 4.674-.098-.31-.215-.613-.351-.909.454-.752.73-1.623.73-2.564 0-2.757-2.243-5-5-5-1.654 0-3 1.346-3 3s1.346 3 3 3h1v-2h-1c-.552 0-1-.448-1-1s.448-1 1-1c1.654 0 3 1.346 3 3s-1.346 3-3 3h-7c-2.415 0-4.435 1.721-4.899 4h-.1c-2.206 0-4 1.794-4 4 0 2.199 1.784 3.989 3.981 4-.102 1.437-.63 2.791-1.487 3.943l-1.904-1.385c-3.5-2.547-5.59-6.652-5.59-10.981zm17.157 36.852c-.999.999-2.381 1.571-3.793 1.571-2.958 0-5.364-2.406-5.364-5.364v-8.03c0-1.825.86-3.525 2.316-4.605h3.601c2.544 0 4.832 1.585 5.752 3.917l-5.669 5.668v-3.35c0-1.76-.979-3.343-2.553-4.131l-.895 1.789c.893.447 1.448 1.344 1.448 2.342v7.764h2v-1.586l7-7 3.586 3.586zm16.207-4.392-.982 1.963h-.764l-.982-1.963c.122-.009.239-.037.364-.037h2c.125 0 .241.028.364.037zm-1.746 3.963h.764l1 2h-2.764zm-5.618 1c0-1.915 1.095-3.563 2.68-4.402l1.202 2.403-1.5 3h-2.382zm12 0v1h-2.382l-1.5-3 1.202-2.403c1.585.84 2.68 2.488 2.68 4.403zm-7-7c-1.228 0-2.3-.729-2.762-1.824l.434-.434c.856-.856 1.328-1.995 1.328-3.207 0-.038-.01-.073-.011-.11l2.425-2.425h2.586c.552 0 1 .448 1 1v4c0 1.654-1.346 3-3 3zm8-4h-1v-2h1c.552 0 1 .448 1 1s-.448 1-1 1zm17 12h-12v-1c0-1.682.842-3.166 2.119-4.073.421 1.758 1.995 3.073 3.881 3.073s3.46-1.315 3.881-3.073c1.277.907 2.119 2.391 2.119 4.073zm-10-11v-4c0-1.381.938-2.548 2.211-2.895.441 1.108 1.525 1.895 2.789 1.895h2c.552 0 1 .448 1 1v4c0 1.654-1.346 3-3 3h-2c-1.654 0-3-1.346-3-3zm3 5h2c.339 0 .67.035.99.1-.053 1.055-.922 1.9-1.99 1.9s-1.936-.845-1.99-1.9c.32-.065.651-.1.99-.1zm9-10v7c0 1.387-.573 2.677-1.555 3.612-.606-.75-1.363-1.371-2.224-1.82 1.079-.918 1.779-2.268 1.779-3.792v-4c0-1.654-1.346-3-3-3h-2c-.552 0-1-.448-1-1v-3h2c3.309 0 6 2.691 6 6zm-10-6v2.101c-2.279.465-4 2.484-4 4.899v4c0 1.524.7 2.874 1.779 3.792-.862.449-1.619 1.07-2.224 1.82-.982-.935-1.555-2.225-1.555-3.612v-7c0-3.309 2.691-6 6-6zm-8.213 5.479-.194.581c-.192-.039-.39-.06-.593-.06h-1.184c-.414-1.161-1.514-2-2.816-2h-.586l3.465-3.465c1.289.729 2.121 2.118 2.121 3.627 0 .447-.072.891-.213 1.317zm-1.787-8.944c0 .678-.264 1.314-.742 1.793l-1.258 1.258-3.586-3.586 1.258-1.258c.056-.056.123-.099.185-.149l3.459.231c.43.466.684 1.069.684 1.711zm8-3.137v-10.848l8-.487v11.868z"/><path d="m43.707 1.414-1.414-1.414-7.293 7.293-1.293-1.293-1.414 1.414 2.707 2.707z"/><path d="m61.707 1.414-1.414-1.414-7.293 7.293-1.293-1.293-1.414 1.414 2.707 2.707z"/><path d="m43.293 5.414 1.293 1.293-1.293 1.293 1.414 1.414 1.293-1.293 1.293 1.293 1.414-1.414-1.293-1.293 1.293-1.293-1.414-1.414-1.293 1.293-1.293-1.293z"/></g></g></svg>