<svg height="512" viewBox="0 0 64 64" width="512" xmlns="http://www.w3.org/2000/svg"><g id="Layer_3" data-name="Layer 3"><circle cx="55" cy="13" fill="#d6e4e8" r="8"/><circle cx="9" cy="53" fill="#d6e4e8" r="8"/><circle cx="9" cy="9" fill="#d6e4e8" r="8"/><path d="m12 14a7.993 7.993 0 0 1 -6.951-11.951 8 8 0 1 0 10.9 10.9 7.959 7.959 0 0 1 -3.949 1.051z" fill="#baced3"/><path d="m62.34 59.51-15.8-15.8a2 2 0 0 1 -.25-2.52 17.018 17.018 0 1 0 -5.1 5.1 2 2 0 0 1 2.52.25l15.88 15.87a1.993 1.993 0 0 0 3.04-.25 2.085 2.085 0 0 0 -.29-2.65zm-30.34-14.51a13 13 0 1 1 13-13 13 13 0 0 1 -13 13z" fill="#8e969b"/><path d="m46.54 43.71a1.99 1.99 0 0 1 -.4-.57 2.012 2.012 0 0 0 -1.95.15 16.923 16.923 0 0 1 -11.21 2.59 16.707 16.707 0 0 1 -5.871-1.839 13.037 13.037 0 0 1 -7.128-7.092 16.559 16.559 0 0 1 -1.841-5.759 16.965 16.965 0 0 1 3.438-12.612 16.991 16.991 0 0 0 19.612 27.712 2 2 0 0 1 2.52.25l15.88 15.87a1.993 1.993 0 0 0 3.04-.25 2.085 2.085 0 0 0 -.29-2.65z" fill="#778084"/><circle cx="32" cy="26" fill="#fcab68" r="3"/><path d="m31 26a2.99 2.99 0 0 1 2-2.816 2.962 2.962 0 0 0 -1-.184 3 3 0 0 0 0 6 2.962 2.962 0 0 0 1-.184 2.99 2.99 0 0 1 -2-2.816z" fill="#ea8e49"/><circle cx="55" cy="10" fill="#fcab68" r="2"/><path d="m32 29a7 7 0 0 0 -7 7v1.786a2.024 2.024 0 0 0 1.158 1.821 12.949 12.949 0 0 0 11.684 0 2.024 2.024 0 0 0 1.158-1.821v-1.786a7 7 0 0 0 -7-7z" fill="#fcab68"/><path d="m30.568 37.2a3.959 3.959 0 0 1 -2.568-3.743v-.457a6.964 6.964 0 0 1 .786-3.214 6.994 6.994 0 0 0 -3.786 6.214v1.786a2.024 2.024 0 0 0 1.158 1.821 12.949 12.949 0 0 0 11.684 0 2.024 2.024 0 0 0 1.158-1.821v-.456a12.634 12.634 0 0 1 -8.432-.13z" fill="#ea8e49"/><g fill="#fcab68"><path d="m58.012 17.433a8.284 8.284 0 0 1 -6.024 0 1.534 1.534 0 0 1 -.988-1.433 4 4 0 0 1 4-4 4 4 0 0 1 4 4 1.534 1.534 0 0 1 -.988 1.433z"/><circle cx="9" cy="50" r="2"/><path d="m12.012 57.433a8.284 8.284 0 0 1 -6.024 0 1.534 1.534 0 0 1 -.988-1.433 4 4 0 0 1 4-4 4 4 0 0 1 4 4 1.534 1.534 0 0 1 -.988 1.433z"/><circle cx="9" cy="6" r="2"/><path d="m12.012 13.433a8.284 8.284 0 0 1 -6.024 0 1.534 1.534 0 0 1 -.988-1.433 4 4 0 0 1 4-4 4 4 0 0 1 4 4 1.534 1.534 0 0 1 -.988 1.433z"/></g><path d="m10.513 13.857a8 8 0 0 1 -5.183-3.443 3.99 3.99 0 0 0 -.33 1.586 1.534 1.534 0 0 0 .988 1.433 8.266 8.266 0 0 0 4.525.424z" fill="#ea8e49"/><path d="m58 18a7.993 7.993 0 0 1 -6.951-11.951 8 8 0 1 0 10.9 10.9 7.959 7.959 0 0 1 -3.949 1.051z" fill="#baced3"/><path d="m56.513 17.857a8 8 0 0 1 -5.183-3.443 3.99 3.99 0 0 0 -.33 1.586 1.534 1.534 0 0 0 .988 1.433 8.266 8.266 0 0 0 4.525.424z" fill="#ea8e49"/><path d="m12 58a7.993 7.993 0 0 1 -6.951-11.951 8 8 0 1 0 10.9 10.9 7.959 7.959 0 0 1 -3.949 1.051z" fill="#baced3"/><path d="m10.513 57.857a8 8 0 0 1 -5.183-3.443 3.99 3.99 0 0 0 -.33 1.586 1.534 1.534 0 0 0 .988 1.433 8.266 8.266 0 0 0 4.525.424z" fill="#ea8e49"/><circle cx="32" cy="8" fill="#fcab68" r="3"/><circle cx="56" cy="38" fill="#fcab68" r="3"/><circle cx="36" cy="56" fill="#fcab68" r="3"/><circle cx="8" cy="32" fill="#fcab68" r="3"/><path d="m43.035 23.384a1 1 0 1 0 -1.575 1.232 11.879 11.879 0 0 1 2.54 7.384 12 12 0 1 1 -5.539-10.114 1 1 0 0 0 1.078-1.686 14.009 14.009 0 1 0 3.5 3.183z"/><path d="m47.244 43a1.009 1.009 0 0 1 -.114-1.271 17.876 17.876 0 0 0 2.332-5.381l2.575 1.288c-.011.121-.037.239-.037.363a4.012 4.012 0 1 0 .708-2.264l-2.86-1.43a18.271 18.271 0 0 0 .027-4.442 17.679 17.679 0 0 0 -2.753-7.572l2.267-2.267a9.023 9.023 0 1 0 -1.414-1.414l-2.041 2.041a17.954 17.954 0 0 0 -11.617-6.507c-.44-.055-.879-.088-1.317-.112v-2.174a4 4 0 1 0 -2 0v2.175a17.888 17.888 0 0 0 -11 4.552l-3.974-3.974a9.023 9.023 0 1 0 -1.414 1.414l3.973 3.975a17.9 17.9 0 0 0 -4.553 11h-2.174a4 4 0 1 0 0 2h2.175c.023.438.057.877.112 1.317a17.7 17.7 0 0 0 3.555 8.568l-3.09 3.09a9.023 9.023 0 1 0 1.414 1.414l2.982-2.982a17.938 17.938 0 0 0 10.857 5.468 18.382 18.382 0 0 0 3.344.081l.667 2.668a3.984 3.984 0 1 0 2.126-.624c-.073 0-.141.018-.214.022l-.58-2.319a17.8 17.8 0 0 0 6.524-2.573 1.007 1.007 0 0 1 1.27.114l15.879 15.877a2.994 2.994 0 0 0 2.121.879c.081 0 .162 0 .243-.01a3.008 3.008 0 0 0 2.2-1.249 3.083 3.083 0 0 0 -.4-3.938zm8.756-7a2 2 0 1 1 -2 2 2 2 0 0 1 2-2zm-1-30a7 7 0 1 1 -7 7 7.008 7.008 0 0 1 7-7zm-46 54a7 7 0 1 1 7-7 7.008 7.008 0 0 1 -7 7zm29-4a2 2 0 1 1 -2-2 2 2 0 0 1 2 2zm-8-48a2 2 0 1 1 2 2 2 2 0 0 1 -2-2zm-21 8a7 7 0 1 1 7-7 7.008 7.008 0 0 1 -7 7zm-1 18a2 2 0 1 1 2-2 2 2 0 0 1 -2 2zm53.821 27.573a1 1 0 0 1 -.739.424.981.981 0 0 1 -.789-.29l-15.877-15.877a2.966 2.966 0 0 0 -2.107-.876 3.062 3.062 0 0 0 -1.663.5 15.862 15.862 0 0 1 -10.546 2.435 16 16 0 1 1 17.789-17.789 15.856 15.856 0 0 1 -2.439 10.546 2.994 2.994 0 0 0 .38 3.77l15.8 15.8a1.084 1.084 0 0 1 .191 1.357z"/><path d="m24 36v1.786a3.038 3.038 0 0 0 1.727 2.724 13.965 13.965 0 0 0 12.545 0 3.037 3.037 0 0 0 1.728-2.724v-1.786a8.008 8.008 0 0 0 -4.982-7.4 3.963 3.963 0 0 0 .982-2.6 4 4 0 0 0 -8 0 3.963 3.963 0 0 0 .982 2.6 8.008 8.008 0 0 0 -4.982 7.4zm6-10a2 2 0 1 1 2 2 2 2 0 0 1 -2-2zm2 4a6.006 6.006 0 0 1 6 6v1.786a1.027 1.027 0 0 1 -.588.918 11.893 11.893 0 0 1 -10.824 0 1.027 1.027 0 0 1 -.588-.918v-1.786a6.006 6.006 0 0 1 6-6z"/><path d="m51.636 18.369a9.3 9.3 0 0 0 6.728 0 2.542 2.542 0 0 0 1.636-2.369 4.983 4.983 0 0 0 -2.52-4.315 3 3 0 1 0 -4.96 0 4.983 4.983 0 0 0 -2.52 4.315 2.542 2.542 0 0 0 1.636 2.369zm2.364-8.369a1 1 0 1 1 1 1 1 1 0 0 1 -1-1zm1 3a3 3 0 0 1 3 3 .532.532 0 0 1 -.34.5 7.249 7.249 0 0 1 -5.319 0 .532.532 0 0 1 -.341-.5 3 3 0 0 1 3-3z"/><path d="m11.48 51.685a3 3 0 1 0 -4.96 0 4.983 4.983 0 0 0 -2.52 4.315 2.542 2.542 0 0 0 1.636 2.369 9.3 9.3 0 0 0 6.728 0 2.542 2.542 0 0 0 1.636-2.369 4.983 4.983 0 0 0 -2.52-4.315zm-3.48-1.685a1 1 0 1 1 1 1 1 1 0 0 1 -1-1zm3.66 6.5a7.249 7.249 0 0 1 -5.319 0 .532.532 0 0 1 -.341-.5 3 3 0 0 1 6 0 .532.532 0 0 1 -.34.5z"/><path d="m11.48 7.685a3 3 0 1 0 -4.96 0 4.983 4.983 0 0 0 -2.52 4.315 2.542 2.542 0 0 0 1.636 2.369 9.3 9.3 0 0 0 6.728 0 2.542 2.542 0 0 0 1.636-2.369 4.983 4.983 0 0 0 -2.52-4.315zm-3.48-1.685a1 1 0 1 1 1 1 1 1 0 0 1 -1-1zm3.66 6.5a7.249 7.249 0 0 1 -5.319 0 .532.532 0 0 1 -.341-.5 3 3 0 0 1 6 0 .532.532 0 0 1 -.34.5z"/><path d="m40 20.309a1 1 0 0 1 -.533-.154 14.015 14.015 0 0 0 -1.867-.99 1 1 0 1 1 .8-1.833 16.13 16.13 0 0 1 2.134 1.131 1 1 0 0 1 -.534 1.846z" fill="#fff"/></g></svg>