<svg height="512" viewBox="0 0 64 64" width="512" xmlns="http://www.w3.org/2000/svg"><g id="Fill_Outline" data-name="Fill Outline"><g id="Color"><path d="m7 3h44v58h-44z" fill="#e9f1f2"/><path d="m51 35.86v25.14h-44v-58h15v1a32.007 32.007 0 0 0 29 31.86z" fill="#d0d8da"/><path d="m43 7h4v4h-4z" fill="#ade8f4"/><path d="m7 31h20v24h-20z" fill="#ffea00"/><path d="m11 43v-12h-4v24h20v-4h-8a8 8 0 0 1 -8-8z" fill="#ffd000"/><path d="m37.908 29.908h4v20h-4z" fill="#ffea00" transform="matrix(.707 -.707 .707 .707 -16.53 39.908)"/><path d="m43.444 44.272-.954-.954a16.94 16.94 0 0 0 1.436-2.218l-9.675-9.674-2.828 2.828 14.142 14.139 2.828-2.828-1.029-1.03a2.991 2.991 0 0 1 -3.92-.263z" fill="#ffd000"/><circle cx="28" cy="28" fill="#aae1f9" r="17"/><path d="m27 31v17a17 17 0 0 1 -17-17z" fill="#ffd000"/><circle cx="28" cy="28" fill="#48cae4" r="13"/><rect fill="#ff7373" height="17" rx="2" transform="matrix(.707 -.707 .707 .707 -21.949 52.99)" width="8" x="48.99" y="44.49"/><path d="m60.32 54.663a5.993 5.993 0 0 1 -8.391-.077l-6.278-6.278-.086.085a2 2 0 0 0 0 2.829l9.192 9.192a2 2 0 0 0 2.829 0l2.828-2.828a2 2 0 0 0 0-2.829z" fill="#ef5350"/><path d="m37.192 18.808a13 13 0 1 0 0 18.384l-17.531-17.531a12.986 12.986 0 0 1 18.05 16.958 12.989 12.989 0 0 0 -.519-17.811z" fill="#00b4d8"/><path d="m36.376 37.931a12.988 12.988 0 0 1 -20.065-15.6 18.031 18.031 0 0 1 0-6.653c-.108.1-.223.192-.329.3a17 17 0 1 0 26.839 20.322 18.889 18.889 0 0 1 -6.445 1.631z" fill="#48cae4"/><circle cx="28" cy="23" fill="#ffea00" r="4"/><path d="m25 27h6a3 3 0 0 1 3 3v5a0 0 0 0 1 0 0h-12a0 0 0 0 1 0 0v-5a3 3 0 0 1 3-3z" fill="#ffea00"/><g fill="#ffd000"><path d="m30 25a3.985 3.985 0 0 1 -3.64-5.64 3.995 3.995 0 1 0 5.28 5.28 3.961 3.961 0 0 1 -1.64.36z"/><path d="m25 27a3 3 0 0 0 -3 3v5h12v-2h-3a6 6 0 0 1 -6-6z"/><path d="m22 30v5h12v-1l-7-7h-2a3 3 0 0 0 -3 3z"/></g><path d="m34 34-1-1h-2a6 6 0 0 1 -6-6 3 3 0 0 0 -3 3v5h12z" fill="#ffb700"/><path d="m24.205 24.205a3.979 3.979 0 0 0 2.595 2.595z" fill="#ffb700"/><path d="m47 10v1h-4v-4h1a3 3 0 0 0 3 3z" fill="#48cae4"/><path d="m31 50h4v5h-4z" fill="#ef5350"/><path d="m35 47h4v8h-4z" fill="#ef5350"/><path d="m39 53v2h-4v-8h2v4a2.006 2.006 0 0 0 2 2z" fill="#e53935"/><path d="m35 53v2h-4v-5h2v1a2.006 2.006 0 0 0 2 2z" fill="#e53935"/></g><g id="Outline_copy" fill="#323232" data-name="Outline copy"><path d="m7 22a1 1 0 0 0 1-1v-9h5a1 1 0 0 0 0-2h-5v-2h12a1 1 0 0 0 0-2h-12v-2h42v22a1 1 0 0 0 2 0v-23a1 1 0 0 0 -1-1h-44a1 1 0 0 0 -1 1v18a1 1 0 0 0 1 1z"/><path d="m61.121 54.05-3.172-3.171a1 1 0 0 0 -1.414 1.414l3.172 3.171a1 1 0 0 1 0 1.415l-2.828 2.828a1.022 1.022 0 0 1 -1.414 0l-9.194-9.192a1 1 0 0 1 0-1.414l2.83-2.829a1 1 0 0 1 1.414 0l3.192 3.192a1 1 0 0 0 1.414-1.414l-3.121-3.121v-14.929a1 1 0 0 0 -2 0v14a2.991 2.991 0 0 0 -1.476.281l-5.861-5.86a17.979 17.979 0 0 0 -.533-21.557 1 1 0 0 0 -1.57 1.24 16.017 16.017 0 1 1 -6.96-5.073l-.632 1.895a13.981 13.981 0 0 0 -16.261 21.323 1 1 0 1 0 1.613-1.182 11.984 11.984 0 0 1 14.019-18.246l-.287.863a1 1 0 1 0 1.9.632l.2-.6a11.986 11.986 0 1 1 -13.219 19.964 1 1 0 0 0 -1.182 1.614 13.99 13.99 0 1 0 15.049-23.521l.644-1.93a15.918 15.918 0 0 1 2.456 1.6 1 1 0 1 0 1.241-1.569 17.925 17.925 0 0 0 -3.06-1.941l.64-1.933h2.279a1 1 0 0 0 0-2h-3a1 1 0 0 0 -.948.684l-.817 2.451a17.98 17.98 0 0 0 -24.235 16.865 18.418 18.418 0 0 0 .118 2h-2.118v-5a1 1 0 0 0 -2 0v36a1 1 0 0 0 1 1h44a1 1 0 0 0 1-1v-1.929l2.05 2.05a3 3 0 0 0 4.243 0l2.828-2.828a3 3 0 0 0 0-4.243zm-14.142-8.485-1.414 1.414-5.58-5.58c.248-.222.5-.432.743-.671s.452-.492.674-.74zm-36.518-13.565a17.763 17.763 0 0 0 2.567 6h-1.028a1 1 0 0 0 0 2h2.612c.219.244.427.495.66.728a18.373 18.373 0 0 0 1.418 1.272h-4.69a1 1 0 0 0 0 2h7.765a17.953 17.953 0 0 0 6.235 1.87v8.13h-18v-22zm39.539 28h-42v-4h19a1 1 0 0 0 1-1v-9.008a17.976 17.976 0 0 0 10.415-3.335l5.866 5.867a3 3 0 0 0 .576 3.405l5.143 5.142z"/><path d="m21 30v5a1 1 0 0 0 1 1h5a1 1 0 0 0 0-2h-4v-4a2 2 0 0 1 2-2h6a2 2 0 0 1 2 2v4h-2a1 1 0 0 0 0 2h3a1 1 0 0 0 1-1v-5a4 4 0 0 0 -3.114-3.893 4.95 4.95 0 0 0 1.114-3.107 5 5 0 0 0 -10 0 4.95 4.95 0 0 0 1.114 3.107 4 4 0 0 0 -3.114 3.893zm7-10a3 3 0 1 1 -3 3 3 3 0 0 1 3-3z"/><path d="m12 48h10a1 1 0 0 0 0-2h-10a1 1 0 0 0 0 2z"/><path d="m22 50h-10a1 1 0 0 0 0 2h10a1 1 0 0 0 0-2z"/><path d="m43 6a1 1 0 0 0 -1 1v4a1 1 0 0 0 1 1h4a1 1 0 0 0 1-1v-4a1 1 0 0 0 -1-1zm3 4h-2v-2h2z"/><path d="m39 46h-4a1 1 0 0 0 -1 1v2h-3a1 1 0 0 0 -1 1v5a1 1 0 0 0 1 1h8a1 1 0 0 0 1-1v-8a1 1 0 0 0 -1-1zm-7 5h2v3h-2zm6 3h-2v-6h2z"/></g></g></svg>