<svg height="496pt" viewBox="0 0 496 496" width="496pt" xmlns="http://www.w3.org/2000/svg"><path d="m488 248c0 132.546875-107.453125 240-240 240s-240-107.453125-240-240 107.453125-240 240-240 240 107.453125 240 240zm0 0" fill="#85d3c1"/><path d="m472 40c0 8.800781-7.199219 16-16 16-4.398438 0-8.398438-1.761719-11.28125-4.71875-2.957031-2.882812-4.71875-6.882812-4.71875-11.28125 0-8.800781 7.199219-16 16-16s16 7.199219 16 16zm0 0" fill="#f9d48a"/><path d="m392 120c0 8.800781-7.199219 16-16 16s-16-7.199219-16-16c0-3.441406 1.039062-6.558594 2.878906-9.199219 2.960938-4.082031 7.761719-6.800781 13.121094-6.800781 4.398438 0 8.398438 1.761719 11.28125 4.71875 2.957031 2.882812 4.71875 6.882812 4.71875 11.28125zm0 0" fill="#f9d48a"/><path d="m309.121094 73.199219c-2.960938 4.082031-7.761719 6.800781-13.121094 6.800781-8.800781 0-16-7.199219-16-16s7.199219-16 16-16 16 7.199219 16 16c0 3.441406-1.039062 6.558594-2.878906 9.199219zm0 0" fill="#f9d48a"/><path d="m449.359375 449.359375c4.242187 4.242187 6.640625 10 6.640625 16 0 6.242187-2.558594 11.921875-6.640625 16-4.078125 4.082031-9.757813 6.640625-16 6.640625-6 0-11.757813-2.398438-16-6.640625l-94-94c12.5625-8.640625 23.359375-19.4375 32-32zm0 0" fill="#f5f7fa"/><path d="m280 288h64c0 48.640625-39.359375 88-88 88s-88-39.359375-88-88 39.359375-88 88-88c8.320312 0 16.398438 1.121094 24 3.28125zm0 0" fill="#f5f7fa"/><path d="m408 160h32v128h-32zm0 0" fill="#ff958a"/><path d="m344 208h32v80h-32zm0 0" fill="#ff958a"/><path d="m312 160v128h-32v-128zm0 0" fill="#ff958a"/><path d="m323.359375 387.359375c-19.199219 12.960937-42.398437 20.640625-67.359375 20.640625-2.71875 0-5.359375-.078125-8-.320312-23.921875-1.519532-46-10.160157-64-23.679688-25.121094-18.960938-42.640625-47.441406-46.960938-80.160156-.71875-5.121094-1.039062-10.480469-1.039062-15.839844 0-30.71875 11.601562-58.800781 30.640625-80 20.320313-22.71875 49.039063-37.601562 81.359375-39.679688 2.640625-.242187 5.28125-.320312 8-.320312 8.238281 0 16.238281.800781 24 2.398438v32.882812c-7.601562-2.160156-15.679688-3.28125-24-3.28125-48.640625 0-88 39.359375-88 88s39.359375 88 88 88 88-39.359375 88-88h32c0 24.960938-7.679688 48.160156-20.640625 67.359375-8.640625 12.5625-19.4375 23.359375-32 32zm0 0" fill="#f9d48a"/><path d="m248 112v56.320312c-32.320312 2.078126-61.039062 16.960938-81.359375 39.679688h-126.640625v96h96l1.039062-.160156c4.320313 32.71875 21.839844 61.199218 46.960938 80.160156h-176v-272zm0 0" fill="#f5f7fa"/><path d="m136 288c0 5.359375.320312 10.71875 1.039062 15.839844l-1.039062.160156h-96v-96h126.640625c-19.039063 21.199219-30.640625 49.28125-30.640625 80zm0 0" fill="#ff958a"/><path d="m248 72v40h-240v-40c0-13.28125 10.71875-24 24-24h192c13.28125 0 24 10.71875 24 24zm0 0" fill="#f9d48a"/><path d="m248 408v16c0 13.28125-10.71875 24-24 24h-192c-13.28125 0-24-10.71875-24-24v-40h176c18 13.519531 40.078125 22.160156 64 23.679688zm0 0" fill="#f9d48a"/><g fill="#232323"><path d="m428.878906 417.566406c43.289063-46.132812 67.121094-106.09375 67.121094-169.566406 0-65.503906-25.566406-125.113281-67.199219-169.488281l16.917969-16.917969c3.128906 1.503906 6.585938 2.40625 10.28125 2.40625 13.230469 0 24-10.769531 24-24s-10.769531-24-24-24-24 10.769531-24 24c0 3.695312.902344 7.152344 2.40625 10.28125l-16.917969 16.917969c-44.375-41.632813-103.984375-67.199219-169.488281-67.199219-48.183594 0-94.769531 13.871094-134.960938 40h-81.039062c-17.648438 0-32 14.351562-32 32v352c0 17.648438 14.351562 32 32 32h80.9375c40.199219 26.160156 86.886719 40 135.0625 40 47.625 0 93.671875-13.585938 133.550781-39.136719l30.160157 30.160157c5.792968 5.792968 13.480468 8.976562 21.65625 8.976562 16.898437 0 30.632812-13.734375 30.632812-30.632812 0-8.175782-3.183594-15.871094-8.976562-21.65625zm27.121094-385.566406c4.40625 0 8 3.59375 8 8s-3.59375 8-8 8-8-3.59375-8-8 3.59375-8 8-8zm-208-16c61.089844 0 116.703125 23.777344 158.183594 62.503906l-19.894532 19.894532c-3.136718-1.496094-6.59375-2.398438-10.289062-2.398438-5.191406 0-9.96875 1.695312-13.894531 4.503906l-43.066407-30.144531c.5625-2.039063.960938-4.144531.960938-6.359375 0-13.230469-10.769531-24-24-24s-24 10.769531-24 24 10.769531 24 24 24c5.191406 0 9.96875-1.695312 13.894531-4.503906l43.066407 30.144531c-.5625 2.039063-.960938 4.144531-.960938 6.359375 0 13.230469 10.769531 24 24 24s24-10.769531 24-24c0-3.695312-.902344-7.152344-2.40625-10.28125l19.894531-19.894531c38.734375 41.472656 62.511719 97.085937 62.511719 158.175781 0 59.199219-22.167969 115.144531-62.441406 158.246094l-52.152344-52.148438c10.410156-17.167968 16.875-36.921875 18.1875-58.097656h80.40625v-16h-16v-128h-48v128h-16v-80h-48v80h-16v-128h-48v9.113281c-5.304688-.65625-10.640625-1.113281-16-1.113281v-88c0-17.648438-14.351562-32-32-32h-78.609375c31.753906-15.695312 66.6875-24 102.609375-24zm128 96c4.40625 0 8 3.59375 8 8s-3.59375 8-8 8-8-3.59375-8-8 3.59375-8 8-8zm-80-40c-4.40625 0-8-3.59375-8-8s3.59375-8 8-8 8 3.59375 8 8-3.59375 8-8 8zm-40 328c-61.761719 0-112-50.238281-112-112s50.238281-112 112-112c5.367188 0 10.703125.519531 16 1.273438v16.109374c-5.273438-.878906-10.617188-1.382812-16-1.382812-52.9375 0-96 43.0625-96 96s43.0625 96 96 96c50.230469 0 91.503906-38.808594 95.59375-88h16c-4.128906 58.023438-52.539062 104-111.59375 104zm-16-238.886719c-30.046875 3.773438-56.847656 17.964844-76.710938 38.886719h-131.289062v112h98.335938c1.039062 5.464844 2.441406 10.800781 4.152343 16h-102.488281v16h109.078125c5.777344 11.792969 13.265625 22.574219 22.210937 32h-147.289062v-256h224zm-112 126.886719c0 2.703125.238281 5.34375.40625 8h-80.40625v-80h102.257812c-14.027343 20.527344-22.257812 45.320312-22.257812 72zm176-8h-16v-112h16zm-48 0v16h79.59375c-4.027344 40.367188-38.1875 72-79.59375 72-44.113281 0-80-35.886719-80-80s35.886719-80 80-80c5.40625 0 10.742188.726562 16 1.792969v70.207031zm112 0h-16v-64h16zm64 0h-16v-112h16zm-400-224h192c8.824219 0 16 7.175781 16 16v32h-224v-32c0-8.824219 7.175781-16 16-16zm-16 368v-32h165.664062c16.871094 12.097656 36.761719 20.183594 58.335938 22.886719v9.113281c0 8.824219-7.175781 16-16 16h-192c-8.824219 0-16-7.175781-16-16zm232 56c-35.878906 0-70.824219-8.320312-102.566406-24h78.566406c17.648438 0 32-14.351562 32-32v-8c24.199219 0 46.769531-6.871094 66.097656-18.59375l47.832032 47.832031c-36.609376 22.671875-78.554688 34.761719-121.929688 34.761719zm185.367188 0c-3.902344 0-7.574219-1.519531-10.34375-4.289062l-87.550782-87.550782c7.664063-6.089844 14.589844-13.023437 20.6875-20.6875l87.558594 87.558594c2.761719 2.761719 4.28125 6.433594 4.28125 10.335938 0 8.074218-6.558594 14.632812-14.632812 14.632812zm0 0"/><path d="m88 408h80v16h-80zm0 0"/><path d="m32 136h16v16h-16zm0 0"/><path d="m64 136h16v16h-16zm0 0"/><path d="m96 136h16v16h-16zm0 0"/><path d="m128 136h96v16h-96zm0 0"/><path d="m32 168h96v16h-96zm0 0"/><path d="m144 168h16v16h-16zm0 0"/></g></svg>